# Blender 3.4.1
# www.blender.org
mtllib champi.mur.mtl
o Icosphere.005
v -0.026016 0.028595 -0.048947
v -0.017984 0.053782 0.011344
v -0.054851 0.016334 0.052860
v -0.069485 -0.033467 0.018226
v -0.051664 -0.025889 -0.044694
v -0.083255 0.100823 -0.019537
v -0.103961 0.100124 0.027622
v -0.154396 0.056918 0.027218
v -0.157626 0.040425 -0.022144
v -0.119154 0.068423 -0.052573
v -0.001481 0.040089 0.007186
v -0.001010 0.023190 -0.033273
v -0.009161 0.040867 -0.020219
v -0.038470 -0.005098 -0.053157
v 0.000517 -0.026885 -0.038945
v -0.000247 -0.004656 0.035821
v -0.029532 0.036309 0.038971
v 0.000988 -0.046163 0.007186
v -0.053133 -0.015580 0.043016
v -0.057349 -0.042183 -0.013674
v -0.083835 0.047887 -0.052909
v -0.109289 0.021714 -0.056214
v -0.056305 0.074150 -0.003689
v -0.063597 0.066152 -0.034285
v -0.085691 0.052214 0.046567
v -0.064744 0.068826 0.027194
v -0.131382 0.012394 0.028406
v -0.127211 0.044326 0.046239
v -0.130236 0.009719 -0.033074
v -0.138675 0.004396 -0.002191
v -0.103557 0.093774 -0.042114
v -0.091255 0.107267 0.009504
v -0.126592 0.079242 0.042185
v -0.163231 0.046315 0.010812
v -0.146498 0.057410 -0.041333
v -0.097637 0.184818 -0.001934
v -0.127985 0.190009 -0.026462
v -0.112628 0.180206 0.033439
v -0.152241 0.182546 0.030775
v -0.161732 0.188604 -0.006246
vn 0.5161 -0.0842 -0.8524
vn 0.0973 0.0879 -0.9914
vn 0.5190 0.8322 -0.1954
vn 0.2224 0.3507 0.9097
vn -0.3545 -0.6315 0.6895
vn -0.4199 -0.7695 -0.4812
vn 0.2386 0.5510 -0.7997
vn 0.3736 0.8916 0.2558
vn -0.0350 0.1433 0.9891
vn -0.5263 -0.7836 0.3303
vn -0.3851 -0.6295 -0.6749
vn 0.6762 0.2602 -0.6893
vn 0.8095 0.0451 0.5854
vn -0.4632 -0.0171 0.8861
vn -0.9861 -0.0095 -0.1660
vn -0.4296 0.1597 -0.8888
vn -0.5118 0.1660 -0.8429
vn -0.8751 0.0276 -0.4831
vn -0.9662 0.0407 0.2544
vn -0.8809 0.0017 0.4733
vn -0.0613 0.0945 0.9936
vn 0.5426 -0.0023 0.8400
vn 0.9061 0.1338 0.4014
vn 0.9639 0.1147 0.2401
vn 0.6321 0.2781 -0.7233
vn 0.2695 0.2209 -0.9373
vn -0.3776 -0.0076 -0.9260
vn -0.6072 -0.3321 -0.7218
vn -0.6515 -0.3396 -0.6784
vn -0.8693 -0.4906 -0.0602
vn -0.7677 -0.5511 0.3270
vn -0.7107 -0.3511 0.6096
vn -0.5364 0.1067 0.8372
vn -0.0298 0.1158 0.9928
vn 0.1831 0.4211 0.8883
vn 0.5036 0.6228 0.5987
vn 0.7132 0.6317 0.3038
vn 0.6937 0.7196 0.0314
vn 0.5172 0.5662 -0.6418
vn 0.4212 0.3753 -0.8257
vn 0.1601 0.2907 -0.9433
vn -0.7619 -0.5705 -0.3066
vn -0.5066 -0.8158 -0.2791
vn -0.4909 -0.8697 0.0508
vn -0.6373 -0.3106 0.7052
vn -0.3123 -0.4318 0.8462
vn -0.2009 -0.2986 0.9330
vn 0.3769 0.4613 0.8032
vn 0.2666 0.5701 0.7771
vn 0.4222 0.6760 0.6040
vn 0.7549 0.5677 -0.3283
vn 0.4662 0.8224 -0.3261
vn 0.4633 0.6837 -0.5639
vn 0.0406 0.0862 -0.9955
vn 0.0662 0.0614 -0.9959
vn -0.0841 -0.3294 -0.9404
vn 0.0337 -0.8873 -0.4599
vn 0.0750 -0.9198 -0.3851
vn -0.1413 -0.9673 0.2105
vn -0.0483 -0.7946 0.6052
vn 0.2230 -0.5491 0.8055
vn 0.1860 -0.2804 0.9417
vn 0.3567 0.1846 0.9158
vn 0.6551 0.4200 0.6281
vn 0.5978 0.5407 0.5918
vn 0.0911 -0.4245 -0.9008
vn 0.3964 0.1152 -0.9108
vn 0.6090 0.7791 -0.1485
vn 0.8174 0.5349 -0.2139
vn 0.4989 0.6518 -0.5712
vt 0.395914 0.308721
vt 0.641783 0.308721
vt 0.456645 0.368072
vt 0.487051 0.334021
vt 0.435512 0.213955
vt 0.608657 0.213955
vt 0.628722 0.198320
vt 0.628722 0.552329
vt 0.552329 0.198320
vt 0.551473 0.653447
vt 0.406659 0.696335
vt 0.461285 0.696335
vt 0.658320 0.674220
vt 0.407899 0.674220
vt 0.559478 0.630943
vt 0.552946 0.632686
vt 0.469413 0.290434
vt 0.344606 0.237870
vt 0.593653 0.237870
vt 0.553566 0.309504
vt 0.484376 0.233043
vt 0.611069 0.427490
vt 0.427490 0.081832
vt 0.390905 0.151287
vt 0.381484 0.151287
vt 0.391102 0.339893
vt 0.371809 0.339893
vt 0.469413 0.459679
vt 0.469413 0.022014
vt 0.459679 0.022014
vt 0.538066 0.232954
vt 0.533468 0.594291
vt 0.533468 0.160989
vt 0.502794 0.493266
vt 0.664098 0.468784
vt 0.609785 0.468784
vt 0.502806 0.513506
vt 0.422124 0.504969
vt 0.596760 0.504969
vt 0.499812 0.510496
vt 0.420282 0.515617
vt 0.407973 0.515617
vt 0.404252 0.488395
vt 0.679488 0.488395
vt 0.349490 0.576712
vt 0.614156 0.576712
vt 0.681331 0.477747
vt 0.593039 0.477747
vt 0.498206 0.479858
vt 0.620800 0.676091
vt 0.471283 0.676091
vt 0.462296 0.690495
vt 0.552282 0.681854
vt 0.458277 0.661092
vt 0.638311 0.658550
vt 0.618403 0.658550
vt 0.497419 0.940883
vt 0.299499 0.940883
vt 0.364133 1.022694
vt 0.343835 0.959409
vt 0.388796 0.959409
vt 0.396978 1.052671
vt 0.435869 1.052671
vt 0.448414 1.091784
vt 0.510658 1.091784
s 0
usemtl Bioluminescence_Emission_Shader
f 1/1/1 12/18/1 14/21/1
f 1/1/2 14/21/2 21/34/2
f 2/3/3 13/20/3 23/37/3
f 3/4/4 17/26/4 25/40/4
f 4/6/5 19/31/5 27/44/5
f 5/7/6 20/33/6 29/48/6
f 1/1/7 21/34/7 24/38/7
f 2/3/8 23/37/8 26/42/8
f 3/4/9 25/40/9 28/46/9
f 4/5/10 27/43/10 30/49/10
f 5/7/11 29/48/11 22/35/11
f 6/10/12 31/50/12 36/57/12
f 7/11/13 32/52/13 38/61/13
f 8/13/14 33/53/14 39/63/14
f 9/15/15 34/54/15 40/65/15
f 10/16/16 35/55/16 37/59/16
f 37/59/17 35/55/17 40/64/17
f 35/56/18 9/15/18 40/65/18
f 40/65/19 34/54/19 39/62/19
f 34/54/20 8/14/20 39/62/20
f 39/63/21 33/53/21 38/60/21
f 33/53/22 7/12/22 38/60/22
f 38/61/23 32/52/23 36/57/23
f 32/52/24 6/10/24 36/57/24
f 36/58/25 31/51/25 37/59/25
f 31/51/26 10/16/26 37/59/26
f 22/36/27 35/55/27 10/16/27
f 22/36/28 29/47/28 35/55/28
f 29/48/29 9/15/29 35/56/29
f 30/49/30 34/54/30 9/15/30
f 30/49/31 27/43/31 34/54/31
f 27/43/32 8/14/32 34/54/32
f 28/46/33 33/53/33 8/13/33
f 28/46/34 25/40/34 33/53/34
f 25/40/35 7/12/35 33/53/35
f 26/42/36 32/52/36 7/11/36
f 26/42/37 23/37/37 32/52/37
f 23/37/38 6/10/38 32/52/38
f 24/39/39 31/50/39 6/10/39
f 24/38/40 21/34/40 31/51/40
f 21/34/41 10/16/41 31/51/41
f 29/48/42 30/49/42 9/15/42
f 29/48/43 20/33/43 30/49/43
f 20/33/44 4/5/44 30/49/44
f 27/43/45 28/45/45 8/14/45
f 27/44/46 19/31/46 28/46/46
f 19/31/47 3/4/47 28/46/47
f 25/40/48 26/41/48 7/12/48
f 25/40/49 17/26/49 26/41/49
f 17/27/50 2/3/50 26/42/50
f 23/37/51 24/39/51 6/10/51
f 23/37/52 13/20/52 24/39/52
f 13/20/53 1/2/53 24/39/53
f 21/34/54 22/36/54 10/16/54
f 21/34/55 14/21/55 22/36/55
f 14/21/56 5/9/56 22/36/56
f 15/22/57 20/32/57 5/8/57
f 15/22/58 18/28/58 20/32/58
f 18/29/59 4/5/59 20/33/59
f 18/30/60 19/31/60 4/6/60
f 18/30/61 16/24/61 19/31/61
f 16/24/62 3/4/62 19/31/62
f 16/24/63 17/26/63 3/4/63
f 16/25/64 11/17/64 17/27/64
f 11/17/65 2/3/65 17/27/65
f 14/21/66 15/23/66 5/9/66
f 14/21/67 12/18/67 15/23/67
f 11/17/68 13/20/68 2/3/68
f 11/17/69 12/19/69 13/20/69
f 12/19/70 1/2/70 13/20/70
o Icosphere.006
v -0.017656 0.211675 -0.043049
v -0.062603 0.212648 0.095271
v -0.208050 0.215799 0.095271
v -0.252997 0.216773 -0.043049
v -0.135327 0.214222 -0.128535
v -0.130127 0.454255 -0.004819
v -0.111621 0.161168 -0.081274
v -0.161307 0.162244 -0.081274
v -0.056068 0.159965 -0.004819
v -0.071423 0.160297 -0.052071
v -0.111621 0.161168 0.071637
v -0.071423 0.160297 0.042433
v -0.201506 0.163115 0.042433
v -0.161307 0.162244 0.071637
v -0.201506 0.163115 -0.052071
v -0.216860 0.163448 -0.004819
v -0.065578 0.239696 -0.100009
v -0.022832 0.238770 0.031541
v -0.134742 0.241194 0.112843
v -0.246653 0.243619 0.031541
v -0.203907 0.242692 -0.100009
v -0.062074 0.401457 -0.027289
v -0.131238 0.402954 -0.077537
v -0.088493 0.402029 0.054012
v -0.173984 0.403881 0.054012
v -0.200402 0.404453 -0.027289
vn 0.7976 0.2329 -0.5565
vn 0.7791 0.2333 0.5818
vn -0.3085 0.2568 0.9159
vn -0.9624 0.2710 -0.0157
vn -0.2787 0.2561 -0.9256
vn -0.3698 0.7618 -0.5318
vn -0.5448 0.3536 -0.7604
vn -0.7867 0.2672 -0.5565
vn -0.6086 0.7671 0.2031
vn -0.8861 0.3611 0.2905
vn -0.7683 0.2668 0.5818
vn 0.0163 0.7534 0.6573
vn 0.0074 0.3416 0.9398
vn 0.3193 0.2432 0.9159
vn 0.6412 0.7400 0.2031
vn 0.9009 0.3224 0.2905
vn 0.9733 0.2291 -0.0157
vn 0.4025 0.7451 -0.5318
vn 0.5596 0.3297 -0.7604
vn 0.2895 0.2438 -0.9256
vn -0.4940 -0.4367 -0.7518
vn -0.5316 -0.4488 -0.7183
vn -0.5747 -0.4349 -0.6932
vn -0.8741 -0.4285 0.2286
vn -0.8541 -0.4418 0.2744
vn -0.8433 -0.4292 0.3235
vn -0.0595 -0.4461 0.8930
vn -0.0100 -0.4600 0.8878
vn 0.0402 -0.4482 0.8930
vn 0.8239 -0.4653 0.3235
vn 0.8342 -0.4784 0.2744
vn 0.8548 -0.4660 0.2286
vn 0.5553 -0.4594 -0.6932
vn 0.5117 -0.4714 -0.7183
vn 0.4746 -0.4577 -0.7518
vn -0.7212 -0.6535 -0.2298
vn -0.4512 -0.6593 0.6015
vn 0.4223 -0.6782 0.6015
vn 0.6923 -0.6841 -0.2298
vn -0.0145 -0.6687 -0.7434
vt 0.684662 0.401197
vt 0.684662 -0.068338
vt 0.016542 0.401196
vt 0.148751 0.401196
vt 0.016542 0.148751
vt 0.851249 0.401196
vt 0.016542 0.401196
vt 0.016542 0.851249
vt 0.684662 0.401197
vt 0.684662 1.068338
vt 0.500000 0.401194
vt 1.097587 0.500000
vt 0.500001 0.500000
vt 0.869302 0.380009
vt 0.869302 0.619991
vt 0.500001 0.111694
vt 0.728241 0.185854
vt 0.130700 0.380009
vt 0.271760 0.185854
vt 0.271760 0.814146
vt 0.130700 0.619991
vt 0.728241 0.814146
vt 0.500001 0.888306
vt 0.959796 0.453655
vt 0.165941 0.453655
vt 0.959796 0.165941
vt 0.324372 0.453656
vt 0.324372 -0.040519
vt 0.500000 0.453655
vt -0.068336 0.500000
vt 0.324372 0.453656
vt 0.324372 1.040519
vt 0.834059 0.453655
vt 0.959796 0.453655
vt 0.959796 0.834059
vt 0.608541 0.768288
vt 0.608541 0.165942
vt 0.851253 0.500000
vt 0.500000 0.768286
vt 0.293543 0.768288
vt 0.215833 0.293543
vt 0.215833 0.768288
vt 0.215833 0.768288
vt 0.215833 0.706457
vt 0.706457 0.768288
vt 0.608541 0.834058
vt 0.608541 0.768288
s 0
usemtl Bioluminescence_Emission_Shader
f 41/66/71 57/89/71 62/101/71
f 42/68/72 58/92/72 64/107/72
f 43/71/73 59/94/73 65/110/73
f 44/74/74 60/96/74 66/112/74
f 45/76/75 61/98/75 63/104/75
f 63/103/76 66/111/76 46/78/76
f 63/103/77 61/100/77 66/111/77
f 61/99/78 44/74/78 66/112/78
f 66/111/79 65/109/79 46/78/79
f 66/112/80 60/96/80 65/108/80
f 60/96/81 43/72/81 65/108/81
f 65/109/82 64/106/82 46/78/82
f 65/110/83 59/94/83 64/105/83
f 59/94/84 42/69/84 64/105/84
f 64/106/85 62/102/85 46/78/85
f 64/107/86 58/92/86 62/101/86
f 58/92/87 41/66/87 62/101/87
f 62/102/88 63/103/88 46/78/88
f 62/102/89 57/91/89 63/103/89
f 57/90/90 45/76/90 63/104/90
f 48/80/91 61/100/91 45/77/91
f 48/80/92 55/87/92 61/100/92
f 55/87/93 44/75/93 61/100/93
f 56/88/94 60/97/94 44/75/94
f 56/88/95 53/85/95 60/97/95
f 53/85/96 43/73/96 60/97/96
f 54/86/97 59/95/97 43/73/97
f 54/86/98 51/83/98 59/95/98
f 51/83/99 42/70/99 59/95/99
f 52/84/100 58/93/100 42/70/100
f 52/84/101 49/81/101 58/93/101
f 49/81/102 41/67/102 58/93/102
f 50/82/103 57/91/103 41/67/103
f 50/82/104 47/79/104 57/91/104
f 47/79/105 45/77/105 57/91/105
f 55/87/106 56/88/106 44/75/106
f 53/85/107 54/86/107 43/73/107
f 51/83/108 52/84/108 42/70/108
f 49/81/109 50/82/109 41/67/109
f 47/79/110 48/80/110 45/77/110
