# Blender 3.4.1
# www.blender.org
mtllib fleurs.sol.mtl
o Plane.007
v 0.102673 0.646683 0.050350
v 0.081570 0.698064 0.101252
v 0.102550 0.646275 0.152155
v 0.053734 0.660703 0.203057
v 0.017528 0.716995 0.168033
v -0.043745 0.690062 0.203057
v -0.092409 0.704994 0.152155
v -0.046317 0.736582 0.101252
v -0.092286 0.705402 0.050350
v -0.043495 0.690892 -0.000553
v 0.017687 0.717522 0.034471
v 0.053984 0.661533 -0.000553
v 0.032685 0.593100 0.151496
v -0.031105 0.555523 0.151496
v -0.063532 0.622079 0.151496
v 0.017046 0.541175 0.101252
v -0.046966 0.502861 0.101252
v -0.079171 0.570154 0.101252
v 0.032774 0.593394 0.051009
v -0.031025 0.555791 0.051009
v -0.063444 0.622374 0.051009
v -0.042914 0.634744 0.101252
v -0.010252 0.624759 0.135406
v 0.022493 0.615053 0.101252
v -0.010180 0.624999 0.067099
vn 0.4114 -0.6929 0.5922
vn -0.7256 -0.3504 0.5922
vn 0.4108 -0.6915 -0.5942
vn -0.7244 -0.3497 -0.5942
vn -0.5683 -0.0716 0.8197
vn 0.4342 -0.3735 0.8197
vn -0.8518 0.0143 -0.5237
vn -0.8526 0.0144 0.5224
vn 0.4335 -0.3727 -0.8205
vn -0.5672 -0.0713 -0.8205
vn 0.7187 -0.4588 0.5224
vn 0.7180 -0.4585 -0.5237
vt 0.638826 0.310028
vt 0.500000 0.192450
vt 0.361174 0.311190
vt 0.361174 0.311909
vt 0.500000 0.193383
vt 0.638826 0.311909
vt 0.361174 0.311190
vt 0.500000 0.192450
vt 0.638826 0.310028
vt 0.638826 0.309545
vt 0.500000 0.191881
vt 0.361174 0.309545
vt 0.362972 0.505002
vt 0.362972 0.653304
vt 0.500000 0.653304
vt 0.637028 0.505002
vt 0.362972 0.505002
vt 0.362972 0.652901
vt 0.500000 0.652901
vt 0.500000 0.803301
vt 0.637028 0.652901
vt 0.500000 0.652901
vt 0.362972 0.504164
vt 0.637028 0.504164
vt 0.500000 0.652541
vt 0.637028 0.504164
vt 0.500000 0.455715
vt 0.500000 0.456099
vt 0.500000 0.455690
vt 0.500000 0.455414
s 0
usemtl Bioluminescence_Emission_Shader
f 13/13/1 14/14/1 17/20/1 16/19/1
f 14/14/2 15/17/2 18/22/2 17/20/2
f 16/18/3 17/20/3 20/25/3 19/23/3
f 17/20/4 18/21/4 21/26/4 20/25/4
f 4/4/5 5/5/5 23/28/5 14/15/5 13/13/5
f 5/5/6 6/6/6 15/16/6 14/15/6 23/28/6
f 15/17/7 7/7/7 8/8/7 22/27/7 18/22/7
f 18/22/8 22/27/8 8/8/8 9/9/8 21/26/8
f 20/25/9 21/26/9 10/10/9 11/11/9 25/30/9
f 19/23/10 20/25/10 25/30/10 11/11/10 12/12/10
f 2/2/11 24/29/11 16/19/11 19/24/11 1/1/11
f 3/3/12 13/13/12 16/19/12 24/29/12 2/2/12
o Plane.008
v -0.107253 0.864398 -0.114994
v -0.161042 0.878258 -0.064091
v -0.107000 0.864056 -0.013189
v -0.147783 0.833594 0.037714
v -0.214549 0.838297 0.002689
v -0.229662 0.773095 0.037714
v -0.270758 0.743057 -0.013189
v -0.268462 0.798887 -0.064091
v -0.271011 0.743400 -0.114994
v -0.230177 0.773792 -0.165897
v -0.214876 0.838740 -0.130872
v -0.148298 0.834291 -0.165897
v -0.106239 0.776260 -0.013848
v -0.114333 0.702668 -0.013848
v -0.187057 0.716544 -0.013848
v -0.074012 0.732645 -0.064091
v -0.081649 0.658434 -0.064091
v -0.154830 0.672929 -0.064091
v -0.106421 0.776507 -0.114335
v -0.114500 0.702893 -0.114335
v -0.187240 0.716791 -0.114335
v -0.184856 0.740640 -0.064091
v -0.157304 0.760823 -0.029938
v -0.129924 0.781240 -0.064091
v -0.157453 0.761025 -0.098245
vn 0.8013 -0.0853 0.5922
vn -0.1538 -0.7910 0.5922
vn 0.7998 -0.0850 -0.5942
vn -0.1536 -0.7895 -0.5942
vn -0.2829 -0.4980 0.8197
vn 0.5591 0.1241 0.8197
vn -0.5214 -0.6737 -0.5237
vn -0.5220 -0.6743 0.5224
vn 0.5581 0.1241 -0.8205
vn -0.2825 -0.4970 -0.8205
vn 0.7978 0.3009 0.5224
vn 0.7971 0.3005 -0.5237
vt 0.638826 0.310028
vt 0.500000 0.192450
vt 0.361174 0.311190
vt 0.361174 0.311909
vt 0.500000 0.193383
vt 0.638826 0.311909
vt 0.361174 0.311190
vt 0.500000 0.192450
vt 0.638826 0.310028
vt 0.638826 0.309545
vt 0.500000 0.191882
vt 0.361174 0.309545
vt 0.362972 0.505002
vt 0.362972 0.653304
vt 0.500000 0.653304
vt 0.637028 0.505002
vt 0.362972 0.505002
vt 0.362972 0.652901
vt 0.500000 0.652901
vt 0.500000 0.803301
vt 0.637028 0.652901
vt 0.500000 0.652901
vt 0.362972 0.504164
vt 0.637028 0.504164
vt 0.500000 0.652541
vt 0.637028 0.504164
vt 0.500000 0.455715
vt 0.500000 0.456099
vt 0.500000 0.455690
vt 0.500000 0.455414
s 0
usemtl Bioluminescence_Emission_Shader
f 38/43/13 39/44/13 42/50/13 41/49/13
f 39/44/14 40/47/14 43/52/14 42/50/14
f 41/48/15 42/50/15 45/55/15 44/53/15
f 42/50/16 43/51/16 46/56/16 45/55/16
f 29/34/17 30/35/17 48/58/17 39/45/17 38/43/17
f 30/35/18 31/36/18 40/46/18 39/45/18 48/58/18
f 40/47/19 32/37/19 33/38/19 47/57/19 43/52/19
f 43/52/20 47/57/20 33/38/20 34/39/20 46/56/20
f 45/55/21 46/56/21 35/40/21 36/41/21 50/60/21
f 44/53/22 45/55/22 50/60/22 36/41/22 37/42/22
f 27/32/23 49/59/23 41/49/23 44/54/23 26/31/23
f 28/33/24 38/43/24 41/49/24 49/59/24 27/32/24
o Cylinder
v -0.084770 -0.007571 -0.093047
v -0.082703 0.660413 -0.065746
v -0.061320 -0.007571 -0.052431
v -0.082742 0.660112 -0.062832
v -0.108219 -0.007571 -0.052431
v -0.087462 0.661787 -0.064565
v -0.069395 0.505649 -0.091167
v -0.084067 0.651831 -0.068422
v -0.091996 0.232096 -0.043531
v -0.062881 0.505649 -0.079884
v -0.077888 0.232096 -0.019095
v -0.079059 0.651831 -0.059748
v -0.106105 0.232096 -0.019095
v -0.089075 0.651831 -0.063153
v -0.068606 0.504268 -0.076846
vn 0.8657 0.0338 -0.4994
vn 0.2991 0.9487 0.1021
vn -0.0000 -1.0000 -0.0000
vn -0.0000 -0.1378 0.9905
vn -0.8635 0.0770 -0.4985
vn 0.2659 -0.2857 -0.9207
vn 0.5314 -0.1423 0.8351
vn -0.9453 0.0417 -0.3234
vn 0.0790 0.2043 0.9757
vn -0.9723 -0.0896 -0.2157
vn -0.0130 -0.1160 0.9932
vt 0.496545 0.589730
vt 0.589730 -0.634788
vt 0.515272 1.186994
vt 0.502180 0.515272
vt 0.502180 1.186994
vt 0.478960 -0.634788
vt 0.560497 0.478960
vt 0.560497 -0.634788
vt 0.507325 1.186171
vt 0.502076 0.507325
vt 0.502076 1.186171
vt 0.432592 0.478960
vt 0.432592 -0.634788
vt 0.478960 -0.634788
vt 0.489203 0.512053
vt 0.489203 1.190739
vt 0.584602 0.764908
vt 0.498461 1.163586
vt 0.522572 1.163586
vt 0.454688 0.018853
vt 0.553831 0.764908
vt 0.556242 0.764908
vt 0.388042 0.018853
vt 0.515314 0.018853
vt 0.498915 1.163586
vt 0.512119 1.163586
vt 0.388042 0.018853
vt 0.438358 0.018853
vt 0.508203 1.163586
vt 0.484803 1.163586
vt 0.545545 0.761141
vt 0.540629 0.761141
s 0
usemtl Bioluminescence_Emission_Shader
f 51/62/25 59/80/25 57/77/25 58/79/25 52/63/25 54/69/25 62/85/25 60/81/25 61/83/25 53/66/25
f 54/70/26 52/64/26 56/75/26
f 51/61/27 53/67/27 55/72/27
f 55/73/28 53/68/28 61/84/28 63/88/28
f 63/87/29 59/80/29 51/62/29 55/74/29
f 62/86/30 64/90/30 56/76/30 52/65/30 54/71/30
f 64/90/31 58/78/31 52/65/31 56/76/31
f 57/77/32 59/80/32 63/87/32 65/91/32
f 60/82/33 65/92/33 63/88/33 61/84/33
f 58/79/34 57/77/34 65/91/34 64/89/34
f 62/86/35 64/90/35 65/92/35 60/82/35
o Cylinder.001
v -0.015743 -0.020298 0.095256
v -0.042264 0.516032 0.102058
v -0.045140 0.515730 0.102530
v -0.059830 -0.020298 0.079260
v -0.044257 0.517405 0.097579
v -0.014909 0.361267 0.110723
v -0.039867 0.507449 0.100248
v -0.065760 0.087715 0.096788
v -0.024881 0.361267 0.119107
v -0.087357 0.087715 0.114947
v -0.047533 0.507449 0.106694
v -0.092285 0.087715 0.087164
v -0.045929 0.507449 0.096237
v -0.028873 0.359886 0.114001
vn -0.0483 0.9487 0.3124
vn 0.3362 0.1688 -0.9265
vn 0.9530 -0.2857 0.1010
vn -0.7294 -0.1423 0.6691
vn 0.1533 0.0417 -0.9873
vn -0.9469 0.2043 0.2482
vn 0.0426 -0.0896 -0.9951
vn -0.9802 -0.1160 0.1607
vt 0.584577 -0.541037
vt 0.502069 0.510119
vt 0.502069 0.921686
vt 0.501964 0.502172
vt 0.501964 0.920864
vt 0.473808 -0.541037
vt 0.489091 0.506900
vt 0.489091 0.925432
vt 0.579450 0.499601
vt 0.498350 0.898279
vt 0.517419 0.898279
vt 0.449535 -0.246454
vt 0.556131 0.499601
vt 0.515203 -0.246454
vt 0.512008 0.898279
vt 0.382889 -0.246454
vt 0.438247 -0.246454
vt 0.503050 0.898279
vt 0.484692 0.898279
vt 0.540392 0.495833
vt 0.540517 0.495833
s 0
usemtl Bioluminescence_Emission_Shader
f 68/96/36 67/94/36 70/99/36
f 77/108/37 73/104/37 66/93/37 69/98/37
f 76/107/38 78/111/38 70/100/38 67/95/38 68/97/38
f 78/111/39 72/102/39 67/95/39 70/100/39
f 71/101/40 73/104/40 77/108/40 79/112/40
f 74/105/41 79/113/41 77/109/41 75/106/41
f 72/103/42 71/101/42 79/112/42 78/110/42
f 76/107/43 78/111/43 79/113/43 74/105/43
o Cylinder.002
v -0.015743 -0.020298 0.095256
v -0.042264 0.516032 0.102058
v -0.045140 0.515730 0.102530
v -0.059830 -0.020298 0.079260
v -0.044257 0.517405 0.097579
v -0.014909 0.361267 0.110723
v -0.039867 0.507449 0.100248
v -0.065760 0.087715 0.096788
v -0.024881 0.361267 0.119107
v -0.087357 0.087715 0.114947
v -0.047533 0.507449 0.106694
v -0.092285 0.087715 0.087164
v -0.045929 0.507449 0.096237
v -0.028873 0.359886 0.114001
v -0.051550 -0.051555 0.116942
vn -0.0483 0.9487 0.3124
vn 0.3362 0.1688 -0.9265
vn 0.9530 -0.2857 0.1010
vn -0.7294 -0.1423 0.6691
vn 0.1533 0.0417 -0.9873
vn -0.9469 0.2043 0.2482
vn 0.0426 -0.0896 -0.9951
vn -0.9802 -0.1160 0.1607
vn 0.4960 0.1737 0.8508
vn 0.6356 -0.1567 0.7559
vn 0.6350 0.1625 0.7552
vt 0.584691 -0.441987
vt 0.497131 0.510234
vt 0.497131 1.020736
vt 0.497027 0.502287
vt 0.497027 1.019913
vt 0.473922 -0.441987
vt 0.484154 0.507015
vt 0.484154 1.024481
vt 0.579564 0.598650
vt 0.493412 0.997328
vt 0.517534 0.997328
vt 0.449650 -0.147405
vt 0.551193 0.598650
vt 0.548793 0.598650
vt 0.510265 -0.147405
vt 0.383004 -0.147405
vt 0.507070 0.997328
vt 0.493877 0.997328
vt 0.383004 -0.147405
vt 0.433309 -0.147405
vt 0.503165 0.997328
vt 0.479754 0.997328
vt 0.540507 0.594883
vt 0.535580 0.594883
vt 0.478208 -0.527231
s 0
usemtl Hologram
f 82/117/44 81/115/44 84/120/44
f 91/132/45 87/125/45 80/114/45 83/119/45
f 90/130/46 92/135/46 84/121/46 81/116/46 82/118/46
f 92/135/47 86/123/47 81/116/47 84/121/47
f 85/122/48 87/125/48 91/132/48 93/136/48
f 88/126/49 93/137/49 91/133/49 89/128/49
f 86/124/50 85/122/50 93/136/50 92/134/50
f 90/130/51 92/135/51 93/137/51 88/126/51
f 89/129/52 94/138/52 80/114/52 87/125/52
f 87/125/53 85/122/53 88/127/53 89/129/53
f 85/122/54 86/124/54 90/131/54 88/127/54
