# Blender 3.4.1
# www.blender.org
mtllib champi.sol.1.mtl
o Icosphere.002
v 0.078664 0.042829 0.057416
v -0.026568 0.042829 0.091608
v -0.091605 0.042830 0.002093
v -0.026568 0.042829 -0.087422
v 0.078664 0.042829 -0.053230
v 0.031602 0.158298 0.091608
v -0.073629 0.158298 0.057416
v -0.073629 0.158298 -0.053230
v 0.031602 0.158298 -0.087422
v 0.096639 0.158298 0.002093
v -0.014578 0.003760 0.054708
v 0.047275 0.003760 0.034611
v 0.030179 0.030274 0.087227
v 0.092032 0.030274 0.002093
v 0.047275 0.003760 -0.030425
v -0.052806 0.003761 0.002093
v -0.069902 0.035755 0.054708
v -0.014578 0.003760 -0.050523
v -0.069902 0.035755 -0.050523
v 0.030179 0.030274 -0.083041
v 0.102599 0.097924 0.034611
v 0.102599 0.097924 -0.030425
v 0.002517 0.097924 0.107325
v 0.064371 0.097924 0.087227
v -0.097564 0.097924 0.034611
v -0.059336 0.097924 0.087227
v -0.059336 0.097924 -0.083041
v -0.097564 0.123413 -0.030425
v 0.064371 0.097924 -0.083041
v 0.002517 0.097924 -0.103139
v 0.074937 0.170853 0.054708
v -0.025145 0.170853 0.087227
v -0.086998 0.170853 0.002093
v -0.025145 0.170853 -0.083041
v 0.074937 0.170853 -0.050523
v 0.019613 0.335518 0.054708
v 0.057841 0.335517 0.002093
v -0.042240 0.335518 0.034611
v -0.042240 0.335518 -0.030425
v 0.019613 0.335518 -0.050523
vn 0.6423 -0.6993 0.3139
vn 0.9166 -0.2802 0.2851
vn 0.0121 -0.2802 0.9599
vn -0.8973 -0.2923 0.3308
vn -0.5919 -0.2923 -0.7511
vn 0.5544 -0.2802 -0.7837
vn 0.8043 -0.1075 0.5844
vn -0.3072 -0.1075 0.9455
vn -0.9956 -0.0875 -0.0343
vn -0.3072 -0.1075 -0.9455
vn 0.8043 -0.1075 -0.5844
vn 0.6004 0.2017 0.7738
vn -0.5504 0.2017 0.8102
vn -0.9406 0.2017 -0.2731
vn -0.0310 0.2017 -0.9790
vn 0.9215 0.2017 -0.3319
vn 0.7807 0.2623 -0.5672
vn 0.6004 0.2017 -0.7738
vn -0.2982 0.2623 -0.9178
vn -0.5504 0.2017 -0.8102
vn -0.9650 0.2623 -0.0000
vn -0.9406 0.2017 0.2731
vn -0.2982 0.2623 0.9178
vn -0.0310 0.2017 0.9789
vn 0.7807 0.2623 0.5672
vn 0.9215 0.2017 0.3319
vn 0.9130 0.2596 -0.3147
vn 0.8007 0.1434 -0.5817
vn 0.5814 0.2596 -0.7711
vn -0.0171 0.2596 -0.9656
vn -0.3058 0.1434 -0.9412
vn -0.5537 0.2596 -0.7912
vn -0.8667 0.3986 -0.2999
vn -0.9827 0.1725 0.0676
vn -0.9236 0.2596 0.2821
vn -0.5537 0.2596 0.7912
vn -0.3058 0.1434 0.9412
vn -0.0171 0.2596 0.9656
vn 0.5814 0.2596 0.7711
vn 0.8007 0.1434 0.5817
vn 0.9130 0.2596 0.3147
vn 0.3075 0.0982 -0.9465
vn 0.3053 -0.1543 -0.9397
vn 0.0121 -0.2802 -0.9599
vn -0.7732 0.1240 -0.6219
vn -0.8320 -0.1395 -0.5369
vn -0.9137 -0.2084 -0.3489
vn -0.8051 0.0982 0.5849
vn -0.7976 -0.1676 0.5795
vn -0.5919 -0.2923 0.7511
vn 0.3075 0.0982 0.9465
vn 0.3053 -0.1543 0.9397
vn 0.5544 -0.2802 0.7837
vn 0.9952 0.0982 -0.0000
vn 0.9880 -0.1543 -0.0000
vn 0.9166 -0.2802 -0.2851
vn 0.4970 -0.6993 -0.5138
vn 0.1575 -0.8604 -0.4847
vn -0.1000 -0.6993 -0.7078
vn -0.3998 -0.6912 -0.6020
vn -0.4705 -0.8135 -0.3418
vn -0.6961 -0.6912 -0.1942
vn -0.6961 -0.6912 0.1942
vn -0.4705 -0.8135 0.3418
vn -0.3998 -0.6912 0.6020
vn 0.6423 -0.6993 -0.3139
vn 0.5097 -0.8604 -0.0000
vn -0.1000 -0.6993 0.7078
vn 0.1575 -0.8604 0.4847
vn 0.4970 -0.6993 0.5138
vt 0.282285 0.315650
vt 0.799663 0.315650
vt 0.799663 0.282285
vt 0.385541 0.315649
vt 0.385541 0.147726
vt 0.500000 0.315651
vt 0.129597 0.500000
vt 0.385541 0.315649
vt 0.385541 0.852274
vt 0.799663 0.315650
vt 0.717715 0.315650
vt 0.799663 0.717715
vt 0.614459 0.614709
vt 0.200337 0.614709
vt 0.282285 0.614709
vt 0.200337 0.614709
vt 0.717715 0.614709
vt 0.614459 0.614709
vt 0.500000 0.614708
vt 0.432723 0.292940
vt 0.676136 0.372031
vt 0.608860 0.283133
vt 0.608860 0.164970
vt 0.500000 0.283134
vt 0.852273 0.500000
vt 0.676136 0.627969
vt 0.282283 0.500000
vt 0.292940 0.297329
vt 0.215005 0.297329
vt 0.215005 0.292940
vt 0.432723 0.707060
vt 0.215005 0.297329
vt 0.707060 0.297329
vt 0.215005 0.707060
vt 0.608860 0.283133
vt 0.608860 0.835030
vt 0.372031 0.458343
vt 0.627969 0.458343
vt 0.500000 0.458343
vt 0.164967 0.458343
vt 0.743416 0.458343
vt 0.372031 0.458343
vt 0.164967 0.458343
vt 0.256584 0.458343
vt 0.256584 0.458343
vt 0.835033 0.458343
vt 0.627969 0.524359
vt 0.835033 0.458343
vt 0.743416 0.458343
vt 0.500000 0.458343
vt 0.784995 0.647225
vt 0.292940 0.647225
vt 0.391140 0.647225
vt 0.500000 0.647225
vt 0.391140 0.647225
vt 0.707060 0.647225
vt 0.784995 0.647225
vt 0.567277 1.073698
vt 0.292940 1.073698
vt 0.500000 1.073696
vt 0.372031 1.073697
vt 0.323864 1.073697
vt 0.323864 1.073697
vt 0.627969 1.073697
vt 0.707060 1.073698
vt 0.567277 1.073698
s 0
usemtl Bioluminescence_Emission_Shader
f 1/3/1 12/21/1 14/25/1
f 1/1/2 14/24/2 21/37/2
f 2/4/3 13/22/3 23/39/3
f 3/6/4 17/28/4 25/42/4
f 4/8/5 19/32/5 27/45/5
f 5/10/6 20/35/6 29/49/6
f 1/1/7 21/37/7 24/40/7
f 2/4/8 23/39/8 26/44/8
f 3/6/9 25/42/9 28/47/9
f 4/8/10 27/45/10 30/50/10
f 5/11/11 29/48/11 22/38/11
f 6/13/12 31/51/12 36/58/12
f 7/14/13 32/53/13 38/62/13
f 8/17/14 33/54/14 39/64/14
f 9/18/15 34/55/15 40/66/15
f 10/19/16 35/56/16 37/60/16
f 37/60/17 35/56/17 40/65/17
f 35/57/18 9/18/18 40/66/18
f 40/66/19 34/55/19 39/63/19
f 34/55/20 8/16/20 39/63/20
f 39/64/21 33/54/21 38/61/21
f 33/54/22 7/15/22 38/61/22
f 38/62/23 32/53/23 36/58/23
f 32/53/24 6/13/24 36/58/24
f 36/59/25 31/52/25 37/60/25
f 31/52/26 10/19/26 37/60/26
f 22/38/27 35/56/27 10/19/27
f 22/38/28 29/48/28 35/56/28
f 29/49/29 9/18/29 35/57/29
f 30/50/30 34/55/30 9/18/30
f 30/50/31 27/45/31 34/55/31
f 27/45/32 8/16/32 34/55/32
f 28/47/33 33/54/33 8/17/33
f 28/47/34 25/42/34 33/54/34
f 25/42/35 7/15/35 33/54/35
f 26/44/36 32/53/36 7/14/36
f 26/44/37 23/39/37 32/53/37
f 23/39/38 6/13/38 32/53/38
f 24/41/39 31/51/39 6/13/39
f 24/40/40 21/37/40 31/52/40
f 21/37/41 10/19/41 31/52/41
f 29/49/42 30/50/42 9/18/42
f 29/49/43 20/35/43 30/50/43
f 20/35/44 4/8/44 30/50/44
f 27/46/45 28/47/45 8/17/45
f 27/46/46 19/33/46 28/47/46
f 19/33/47 3/6/47 28/47/47
f 25/42/48 26/43/48 7/15/48
f 25/42/49 17/28/49 26/43/49
f 17/29/50 2/4/50 26/44/50
f 23/39/51 24/41/51 6/13/51
f 23/39/52 13/22/52 24/41/52
f 13/22/53 1/2/53 24/41/53
f 21/37/54 22/38/54 10/19/54
f 21/37/55 14/24/55 22/38/55
f 14/24/56 5/11/56 22/38/56
f 15/26/57 20/36/57 5/12/57
f 15/26/58 18/31/58 20/36/58
f 18/31/59 4/9/59 20/36/59
f 18/31/60 19/34/60 4/9/60
f 18/31/61 16/27/61 19/34/61
f 16/27/62 3/7/62 19/34/62
f 16/27/63 17/30/63 3/7/63
f 16/27/64 11/20/64 17/30/64
f 11/20/65 2/5/65 17/30/65
f 14/25/66 15/26/66 5/12/66
f 14/25/67 12/21/67 15/26/67
f 11/20/68 13/23/68 2/5/68
f 11/20/69 12/21/69 13/23/69
f 12/21/70 1/3/70 13/23/70
o Icosphere.004
v 0.077564 0.353978 0.210391
v -0.166601 0.353978 0.131056
v -0.166601 0.353978 -0.125672
v 0.077564 0.353978 -0.205007
v 0.228467 0.353977 0.002692
v 0.010079 0.488948 0.002692
v 0.187251 0.313690 0.060258
v 0.187251 0.313690 -0.054874
v 0.010079 0.313690 0.188982
v 0.119578 0.313690 0.153403
v -0.167093 0.313690 0.060258
v -0.099419 0.313690 0.153403
v -0.099419 0.313690 -0.148019
v -0.167093 0.313690 -0.054874
v 0.119578 0.313690 -0.148019
v 0.010079 0.313690 -0.183597
v 0.178111 0.373149 0.124774
v -0.054104 0.373150 0.200225
v -0.197619 0.373149 0.002692
v -0.054104 0.373150 -0.194840
v 0.178111 0.373149 -0.119390
v 0.049745 0.452483 0.124774
v 0.138444 0.452482 0.002692
v -0.093770 0.452483 0.078142
v -0.093770 0.452483 -0.072758
v 0.049745 0.452483 -0.119389
vn 0.4089 0.6617 0.6284
vn -0.4713 0.6617 0.5831
vn -0.7002 0.6617 -0.2680
vn 0.0385 0.6617 -0.7488
vn 0.7240 0.6617 -0.1947
vn 0.2680 0.9435 -0.1947
vn 0.4911 0.7947 -0.3568
vn 0.4089 0.6617 -0.6284
vn -0.1024 0.9435 -0.3151
vn -0.1876 0.7947 -0.5773
vn -0.4713 0.6617 -0.5831
vn -0.3313 0.9435 -0.0000
vn -0.6071 0.7947 -0.0000
vn -0.7002 0.6617 0.2680
vn -0.1024 0.9435 0.3151
vn -0.1876 0.7947 0.5773
vn 0.0385 0.6617 0.7488
vn 0.2680 0.9435 0.1947
vn 0.4911 0.7947 0.3568
vn 0.7240 0.6617 0.1947
vn 0.8624 -0.3055 -0.4037
vn 0.7197 -0.4567 -0.5229
vn 0.6504 -0.3054 -0.6955
vn -0.1174 -0.3054 -0.9449
vn -0.2749 -0.4567 -0.8461
vn -0.4604 -0.3054 -0.8335
vn -0.9350 -0.3055 -0.1803
vn -0.8896 -0.4567 -0.0000
vn -0.9350 -0.3055 0.1803
vn -0.4604 -0.3054 0.8335
vn -0.2749 -0.4567 0.8461
vn -0.1174 -0.3054 0.9449
vn 0.6504 -0.3054 0.6955
vn 0.7197 -0.4567 0.5229
vn 0.8624 -0.3055 0.4037
vn 0.2160 -0.7151 -0.6648
vn -0.5655 -0.7151 -0.4109
vn -0.5655 -0.7151 0.4109
vn 0.2160 -0.7151 0.6648
vn 0.6990 -0.7151 -0.0000
vt 0.726377 0.416236
vt 0.726377 -0.196725
vt 0.069404 0.416236
vt -0.092670 0.416236
vt -0.092670 0.069404
vt -0.092670 0.416236
vt 0.930596 0.416236
vt -0.092670 0.930596
vt 0.726377 0.416236
vt 0.726377 1.196725
vt 0.500000 0.416233
vt 1.232581 0.500000
vt 0.500001 0.500000
vt 0.306896 0.281091
vt 1.094323 0.306896
vt 0.693104 0.281091
vt 1.094323 0.693104
vt 0.500001 0.281091
vt 0.500001 -0.124906
vt 0.867312 0.281091
vt -0.005559 0.281091
vt 0.867312 -0.005559
vt 0.306896 0.281091
vt -0.094321 0.306896
vt 0.132690 0.281091
vt 0.132690 -0.005559
vt 0.132690 0.281091
vt 0.132690 1.005560
vt 0.693104 0.281091
vt -0.094321 0.693104
vt 1.005560 0.281091
vt 0.867312 0.281091
vt 0.867312 1.005560
vt 0.500001 0.281091
vt 0.500001 1.124906
vt 1.063663 0.090477
vt 1.063663 0.480545
vt 0.090477 0.480545
vt 0.284698 -0.162621
vt 0.284698 0.480546
vt -0.196723 0.500000
vt 0.500000 0.480545
vt 0.284698 1.162622
vt 0.284698 0.480546
vt 1.063663 0.909523
vt 0.909523 0.480545
vt 1.063663 0.480545
vt 0.633060 0.746670
vt 0.633060 0.090479
vt 0.930600 0.500000
vt 0.500000 0.746667
vt 0.246904 0.746670
vt 0.151640 0.246904
vt 0.753096 0.746670
vt 0.151640 0.753096
vt 0.633060 0.746670
vt 0.633060 0.909522
s 0
usemtl Bioluminescence_Emission_Shader
f 41/68/71 57/102/71 62/115/71
f 42/71/72 58/105/72 64/119/72
f 43/73/73 59/108/73 65/120/73
f 44/75/74 60/110/74 66/122/74
f 45/77/75 61/112/75 63/117/75
f 63/116/76 66/123/76 46/79/76
f 63/116/77 61/111/77 66/123/77
f 61/111/78 44/76/78 66/123/78
f 66/123/79 65/121/79 46/79/79
f 66/123/80 60/109/80 65/121/80
f 60/109/81 43/74/81 65/121/81
f 65/121/82 64/119/82 46/79/82
f 65/121/83 59/107/83 64/119/83
f 59/108/84 42/69/84 64/118/84
f 64/119/85 62/115/85 46/79/85
f 64/119/86 58/105/86 62/115/86
f 58/106/87 41/67/87 62/114/87
f 62/115/88 63/116/88 46/79/88
f 62/115/89 57/102/89 63/116/89
f 57/104/90 45/77/90 63/117/90
f 48/82/91 61/112/91 45/77/91
f 48/82/92 55/97/92 61/112/92
f 55/98/93 44/75/93 61/113/93
f 56/100/94 60/110/94 44/75/94
f 56/100/95 53/93/95 60/110/95
f 53/93/96 43/72/96 60/110/96
f 54/95/97 59/108/97 43/73/97
f 54/95/98 51/89/98 59/108/98
f 51/89/99 42/69/99 59/108/99
f 52/91/100 58/106/100 42/70/100
f 52/91/101 49/84/101 58/106/101
f 49/84/102 41/67/102 58/106/102
f 50/86/103 57/103/103 41/67/103
f 50/87/104 47/80/104 57/104/104
f 47/80/105 45/77/105 57/104/105
f 55/99/106 56/101/106 44/76/106
f 53/94/107 54/96/107 43/74/107
f 51/90/108 52/92/108 42/71/108
f 49/85/109 50/88/109 41/68/109
f 47/81/110 48/83/110 45/78/110
