# Blender 3.4.1
# www.blender.org
mtllib liane.1.mtl
o herbe.droit.002
v -0.081248 0.024238 -0.294839
v -0.032999 0.024238 -0.378410
v -0.129498 0.024238 -0.378410
v -0.063825 -1.178102 -0.299429
v -0.057124 0.024238 -0.336625
v -0.093199 -0.488828 -0.365189
v -0.067272 -0.497028 -0.405046
v -0.081248 0.024238 -0.378410
v -0.115383 -0.500424 -0.406438
v -0.105373 0.024238 -0.336625
v -0.065766 -0.830833 -0.270337
v -0.053531 -0.829862 -0.291106
v -0.077654 -0.829980 -0.291312
v -0.104291 -0.494626 -0.385814
v -0.091328 -0.498726 -0.405742
v -0.080236 -0.492928 -0.385118
vn 0.8626 -0.0884 0.4980
vn -0.0000 1.0000 -0.0000
vn -0.0000 0.0510 -0.9987
vn -0.8649 -0.0499 0.4994
vn -0.8650 -0.0483 0.4994
vn -0.8741 -0.0477 0.4835
vn -0.8860 0.0592 0.4598
vn -0.0000 0.0533 -0.9986
vn 0.0252 0.0517 -0.9983
vn 0.0501 -0.3216 -0.9455
vn 0.8631 -0.0822 0.4983
vn 0.8264 -0.0891 0.5559
vn 0.8390 0.2069 0.5032
vn 0.8387 0.2070 0.5037
vn 0.8618 -0.0376 0.5059
vn 0.0502 -0.3242 -0.9446
vn 0.0096 -0.3261 -0.9453
vn 0.0084 0.0236 -0.9997
vn -0.8859 0.0567 0.4605
vn -0.8666 0.0704 0.4940
vn -0.8698 -0.0460 0.4912
vt 0.499826 0.519248
vt 0.519248 0.338759
vt 0.517292 0.338759
vt 0.517292 0.488997
vt 0.488997 0.338759
vt 0.488997 0.338759
vt 0.482361 0.338759
vt 0.482361 0.488997
vt 0.506133 0.773983
vt 0.517587 0.773983
vt 0.508559 0.504123
vt 0.504123 0.338759
vt 0.493783 0.524479
vt 0.504885 0.527447
vt 0.479355 0.527447
vt 0.499826 0.338759
vt 0.499826 0.488997
vt 0.478852 0.528677
vt 0.487470 0.528677
vt 0.504123 0.338759
vt 0.491093 0.504123
vt 0.528118 0.648278
vt 0.520600 0.647927
vt 0.509859 0.647927
vt 0.501127 0.647969
vt 0.520525 0.647969
vt 0.486317 0.526578
vt 0.496178 0.528062
vt 0.486569 0.525963
s 0
usemtl Bioluminescence_Emission_Shader
f 1/2/1 6/13/1 5/12/1
f 1/1/2 5/11/2 10/21/2
f 2/3/3 7/14/3 8/16/3
f 3/6/4 9/18/4 10/20/4
f 10/20/5 6/13/5 1/2/5
f 10/20/6 9/18/6 14/27/6 6/13/6
f 9/18/7 13/26/7 14/27/7
f 8/16/8 9/19/8 3/7/8
f 8/16/9 7/14/9 15/28/9 9/19/9
f 7/14/10 12/24/10 15/28/10
f 10/21/2 8/17/2 3/8/2
f 10/21/2 5/11/2 8/17/2
f 5/11/2 2/4/2 8/17/2
f 5/12/11 7/15/11 2/5/11
f 5/12/12 6/13/12 16/29/12 7/15/12
f 6/13/13 11/22/13 16/29/13
f 16/29/13 12/23/13 7/15/13
f 16/29/14 11/22/14 12/23/14
f 11/22/15 4/10/15 12/23/15
f 15/28/16 13/25/16 9/19/16
f 15/28/17 12/24/17 13/25/17
f 12/24/18 4/9/18 13/25/18
f 14/27/19 11/22/19 6/13/19
f 14/27/20 13/26/20 11/22/20
f 13/26/21 4/10/21 11/22/21
o herbe.droit.003
v -0.174300 0.027387 -0.113128
v -0.111728 0.027387 -0.221507
v -0.236873 0.027387 -0.221507
v -0.143014 0.027387 -0.167317
v -0.098892 -0.125637 -0.009799
v -0.065269 -0.165821 -0.044005
v -0.174300 0.027387 -0.221507
v -0.127660 -0.170403 -0.042718
v -0.205586 0.027387 -0.167317
v 0.038444 -0.112900 0.217326
v 0.063624 -0.143043 0.247696
v 0.013977 -0.143147 0.248172
v -0.113276 -0.148020 -0.026259
v -0.096465 -0.168112 -0.043362
v -0.082081 -0.145729 -0.026902
v 0.029062 0.044720 0.367109
v 0.041651 0.023711 0.371154
v 0.016828 0.010087 0.367270
v 0.051034 -0.127972 0.232511
v 0.038801 -0.143095 0.247934
v 0.026211 -0.128024 0.232749
v 0.022945 0.027403 0.367189
v 0.029240 0.016899 0.369212
v 0.035357 0.034216 0.369132
vn 0.6880 0.6073 0.3972
vn -0.0000 1.0000 -0.0000
vn -0.0000 -0.6765 -0.7364
vn -0.8657 -0.0262 0.4998
vn -0.8626 -0.0888 0.4980
vn -0.7947 0.0670 0.6033
vn -0.8759 0.2677 0.4014
vn -0.0000 -0.6706 -0.7418
vn 0.0335 -0.6658 -0.7453
vn 0.0741 -0.9962 0.0451
vn 0.7203 0.5552 0.4158
vn 0.8358 0.4919 0.2437
vn 0.5359 0.7605 -0.3667
vn 0.5790 0.7522 -0.3146
vn 0.8533 0.2541 -0.4553
vn 0.8616 0.3757 -0.3414
vn 0.0743 -0.9956 0.0571
vn 0.0029 -0.9964 0.0842
vn 0.0089 -0.5942 0.8042
vn -0.8468 0.1749 0.5023
vn -0.5998 0.7551 0.2647
vn -0.8693 0.3133 -0.3823
vn -0.8693 0.3124 -0.3832
vn -0.8742 0.3070 -0.3762
vn 0.0088 -0.6137 0.7895
vn 0.1977 -0.5846 0.7868
vn 0.8617 0.3703 -0.3469
vn 0.8188 0.4141 -0.3976
vt 0.459425 0.438100
vt 0.438100 0.464024
vt 0.482075 0.464024
vt 0.482075 0.398869
vt 0.398869 0.464024
vt 0.398869 0.464024
vt 0.436775 0.464024
vt 0.436775 0.398869
vt 0.470750 0.418485
vt 0.418485 0.464024
vt 0.486721 0.475503
vt 0.475503 0.519416
vt 0.498892 0.533962
vt 0.463122 0.533962
vt 0.498892 0.463122
vt 0.459425 0.464024
vt 0.459425 0.398869
vt 0.463587 0.535620
vt 0.476307 0.535620
vt 0.476307 0.463587
vt 0.418485 0.464024
vt 0.448100 0.418485
vt 0.536434 0.557718
vt 0.557718 0.514805
vt 0.545549 0.568712
vt 0.545549 0.525716
vt 0.568712 0.525716
vt 0.527578 0.568884
vt 0.568884 0.525754
vt 0.527578 0.525754
vt 0.469545 0.527518
vt 0.481514 0.469545
vt 0.487600 0.534791
vt 0.487600 0.463354
vt 0.492806 0.469312
vt 0.469312 0.526689
vt 0.611937 0.457750
vt 0.537595 0.465355
vt 0.613401 0.465355
vt 0.611995 0.470286
vt 0.528610 0.470286
vt 0.563215 0.520261
vt 0.536563 0.568798
vt 0.536563 0.525735
vt 0.532006 0.563301
vt 0.563301 0.520280
vt 0.611966 0.464018
vt 0.533102 0.467821
vt 0.612669 0.461552
s 0
usemtl Bioluminescence_Emission_Shader
f 17/31/22 21/41/22 20/39/22
f 17/30/23 20/38/23 25/51/23
f 18/32/24 22/42/24 23/45/24
f 19/35/25 24/47/25 25/50/25
f 25/50/26 21/41/26 17/31/26
f 25/50/27 24/47/27 29/60/27 21/41/27
f 24/47/28 28/58/28 29/60/28
f 23/45/29 24/48/29 19/36/29
f 23/45/30 22/42/30 30/62/30 24/48/30
f 22/44/31 27/54/31 30/63/31
f 25/51/23 23/46/23 19/37/23
f 25/51/23 20/38/23 23/46/23
f 20/38/23 18/33/23 23/46/23
f 20/39/32 22/43/32 18/34/32
f 20/39/33 21/41/33 31/65/33 22/43/33
f 21/40/34 26/52/34 31/64/34
f 31/64/35 27/54/35 22/44/35
f 31/65/36 26/53/36 35/71/36 27/56/36
f 26/53/37 32/66/37 35/71/37
f 30/63/38 28/57/38 24/49/38
f 30/63/39 27/54/39 36/72/39 28/57/39
f 27/55/40 33/67/40 36/73/40
f 29/60/41 26/53/41 21/41/41
f 29/61/42 28/57/42 37/74/42 26/52/42
f 28/58/43 34/69/43 37/75/43
f 37/75/44 32/66/44 26/53/44
f 37/75/45 34/69/45 38/76/45 32/66/45
f 36/73/46 34/70/46 28/59/46
f 36/73/47 33/67/47 39/77/47 34/70/47
f 35/71/48 33/68/48 27/56/48
f 35/71/49 32/66/49 40/78/49 33/68/49
o herbe.droit.004
v 0.124795 0.021113 0.456080
v 0.030725 0.021113 0.434561
v 0.059125 0.021113 0.526788
v 0.115281 -0.818819 0.440779
v 0.077760 0.021113 0.445321
v 0.061078 -0.129544 0.488205
v 0.015355 -0.137744 0.475156
v 0.044925 0.021113 0.480674
v 0.028184 -0.141140 0.521545
v 0.091960 0.021113 0.491434
v 0.143656 -0.471549 0.434072
v 0.120205 -0.470579 0.428491
v 0.127109 -0.470696 0.451607
v 0.044631 -0.135342 0.504875
v 0.021769 -0.139442 0.498351
v 0.038216 -0.133644 0.481681
vn 0.2135 -0.2893 -0.9331
vn -0.0000 1.0000 -0.0000
vn -0.9426 0.1654 0.2902
vn 0.7233 -0.1596 0.6718
vn 0.7230 -0.1626 0.6715
vn 0.7301 -0.1639 0.6634
vn 0.7002 0.0592 0.7115
vn -0.9418 0.1702 0.2900
vn -0.9471 0.1668 0.2741
vn -0.9184 -0.3216 0.2304
vn 0.2152 -0.2613 -0.9410
vn 0.3105 -0.2919 -0.9046
vn 0.2340 0.2069 -0.9500
vn 0.2346 0.2070 -0.9498
vn 0.2299 -0.0376 -0.9725
vn -0.9176 -0.3242 0.2300
vn -0.9062 -0.3261 0.2690
vn -0.9579 0.0236 0.2862
vn 0.7008 0.0567 0.7111
vn 0.7272 0.0704 0.6828
vn 0.7254 -0.0460 0.6868
vt 0.499826 0.519248
vt 0.519248 0.424029
vt 0.517292 0.424029
vt 0.517292 0.488997
vt 0.488997 0.424029
vt 0.488997 0.424029
vt 0.482361 0.424029
vt 0.482361 0.488997
vt 0.506133 0.728069
vt 0.517587 0.728069
vt 0.508559 0.504123
vt 0.504123 0.424029
vt 0.493783 0.478564
vt 0.504885 0.481533
vt 0.479355 0.481533
vt 0.499826 0.424029
vt 0.499826 0.488997
vt 0.478852 0.482762
vt 0.487470 0.482762
vt 0.504123 0.424029
vt 0.491093 0.504123
vt 0.528118 0.602363
vt 0.520600 0.602012
vt 0.509859 0.602012
vt 0.501127 0.602055
vt 0.520525 0.602055
vt 0.486317 0.480663
vt 0.496178 0.482147
vt 0.486569 0.480048
s 0
usemtl Bioluminescence_Emission_Shader
f 41/80/50 46/91/50 45/90/50
f 41/79/51 45/89/51 50/99/51
f 42/81/52 47/92/52 48/94/52
f 43/84/53 49/96/53 50/98/53
f 50/98/54 46/91/54 41/80/54
f 50/98/55 49/96/55 54/105/55 46/91/55
f 49/96/56 53/104/56 54/105/56
f 48/94/57 49/97/57 43/85/57
f 48/94/58 47/92/58 55/106/58 49/97/58
f 47/92/59 52/102/59 55/106/59
f 50/99/51 48/95/51 43/86/51
f 50/99/51 45/89/51 48/95/51
f 45/89/51 42/82/51 48/95/51
f 45/90/60 47/93/60 42/83/60
f 45/90/61 46/91/61 56/107/61 47/93/61
f 46/91/62 51/100/62 56/107/62
f 56/107/62 52/101/62 47/93/62
f 56/107/63 51/100/63 52/101/63
f 51/100/64 44/88/64 52/101/64
f 55/106/65 53/103/65 49/97/65
f 55/106/66 52/102/66 53/103/66
f 52/102/67 44/87/67 53/103/67
f 54/105/68 51/100/68 46/91/68
f 54/105/69 53/104/69 51/100/69
f 53/104/70 44/88/70 51/100/70
